<svg width="207" height="159" viewBox="0 0 207 159" fill="none" xmlns="http://www.w3.org/2000/svg">
<path d="M160.553 155.058C166.94 141.56 169.23 126.444 166.932 111.686C164.655 96.7232 157.444 82.6631 146.963 71.8682C137.266 61.8984 123.454 52.9147 108.941 53.624C101.953 53.9854 95.3491 56.6618 90.223 61.4752C85.3225 66.1049 81.8357 72.2858 80.3754 78.8808C77.3426 92.7627 83.565 107.177 93.9602 116.391C99.2743 121.072 105.774 125.087 113.01 125.537C120.86 126.05 127.44 121.179 132.58 115.829C142.26 105.729 147.975 91.9149 148.452 77.9373C148.951 63.7549 143.611 50.0102 134.182 39.447C124.858 29.0602 111.988 22.2002 98.0943 20.904C84.7368 19.6212 70.9832 23.4286 59.9449 31.0305C57.2787 32.8268 54.8247 34.9757 52.5262 37.2233C50.4533 39.2871 53.4929 42.7424 55.6151 40.6009C64.2026 31.8795 76.006 26.5074 88.1604 25.3915C100.774 24.2397 113.188 27.8672 123.242 35.5565C133.346 43.1682 140.624 54.5457 142.947 67.0305C145.271 79.5153 142.583 92.8533 136.01 103.725C132.685 109.137 128.307 114.316 123.102 117.88C120.309 119.705 117.197 121 113.851 120.948C110.759 120.839 107.751 119.911 104.961 118.467C93.8781 112.741 85.1882 101.012 84.1919 88.4978C83.2598 76.569 90.0495 63.9814 101.494 59.6898C113.8 55.0723 127.453 61.5573 137.02 69.1554C147.937 77.7191 156.175 89.8155 160.201 103.054C164.198 116.165 164.109 130.389 160.116 143.552C159.138 146.638 158.034 149.752 156.618 152.669C156.133 153.778 156.163 155.105 157.328 155.845C158.31 156.359 159.99 156.117 160.553 155.058Z" fill="black"/>
<path d="M23.6025 92.8684L2.15194 72.0327C0.963457 70.8783 0.93584 68.979 2.09025 67.7905L29.3874 39.6877C29.915 39.1446 30.6285 38.821 31.3847 38.782L53.0668 37.663C54.7198 37.5777 56.1296 38.8473 56.2172 40.5002L57.3093 61.0922C57.3536 61.9267 57.0477 62.7418 56.4654 63.3413L27.8447 92.8067C26.6903 93.9952 24.791 94.0228 23.6025 92.8684Z" fill="black"/>
<path d="M17.7351 66.2681L41.5577 65.9217M29.8832 53.7615L30.2296 77.5841" stroke="white" stroke-width="3" stroke-linecap="round"/>
<circle cx="50" cy="44.2366" r="2" fill="white"/>
</svg>
